<?xml version="1.0" encoding="UTF-8"?>
<!DOCTYPE svg PUBLIC "-//W3C//DTD SVG 1.1//EN" "http://www.w3.org/Graphics/SVG/1.1/DTD/svg11.dtd">
<!-- Creator: CorelDRAW X7 -->
<svg xmlns="http://www.w3.org/2000/svg" xml:space="preserve" width="512px" height="512px" version="1.1" style="shape-rendering:geometricPrecision; text-rendering:geometricPrecision; image-rendering:optimizeQuality; fill-rule:evenodd; clip-rule:evenodd"
viewBox="0 0 512 512"
 xmlns:xlink="http://www.w3.org/1999/xlink">
 <defs>
  <style type="text/css">
   <![CDATA[
    .fil0 {fill:none}
    .fil1 {fill:black;fill-rule:nonzero}
   ]]>
  </style>
 </defs>
 <g id="Слой_x0020_1">
  <metadata id="CorelCorpID_0Corel-Layer"/>
  <circle class="fil0" cx="234" cy="232" r="142"/>
  <circle class="fil0" cx="256" cy="256" r="147"/>
  <path class="fil1" d="M328 420l-21 5c-2,-6 -3,-11 -2,-16 1,-5 3,-10 6,-14 2,-4 7,-7 13,-11 7,-4 14,-6 20,-7 6,0 12,1 18,4 7,4 12,10 17,18 6,11 8,22 6,31 -3,9 -10,17 -20,23 -9,5 -17,7 -23,6 -7,0 -14,-3 -20,-9l16 -15c2,2 3,3 4,4 3,1 5,1 7,1 2,0 4,-1 6,-2 5,-3 7,-7 8,-12 0,-4 -1,-9 -5,-15 -4,-7 -8,-12 -12,-13 -4,-2 -8,-1 -12,1 -4,2 -6,5 -7,9 -1,3 0,7 1,12z"/>
  <polygon id="1" class="fil1" points="270,484 239,479 233,431 215,476 184,472 194,395 214,398 206,456 229,400 246,402 253,463 261,404 281,407 "/>
  <path id="2" class="fil1" d="M165 407l-18 -15c3,-3 4,-5 4,-8 0,-4 -1,-7 -4,-10 -3,-3 -5,-4 -8,-4 -2,0 -4,0 -6,2 -1,1 -2,3 -2,6 1,2 3,6 6,11 6,9 10,17 10,23 1,6 -1,11 -5,15 -3,3 -6,5 -10,6 -5,1 -9,1 -14,-1 -4,-2 -10,-5 -16,-11 -7,-7 -11,-13 -12,-19 -2,-7 0,-13 5,-20l17 15c-2,3 -2,6 -2,8 0,3 2,5 4,7 2,2 4,3 6,3 2,0 3,0 4,-1 1,-1 1,-3 1,-4 0,-2 -1,-4 -4,-8 -6,-8 -10,-15 -11,-20 -2,-5 -2,-9 -2,-13 1,-4 3,-7 6,-11 3,-3 8,-6 12,-7 5,-1 10,-1 15,1 6,2 11,6 16,11 10,9 15,17 15,24 0,7 -2,14 -7,20z"/>
  <path id="3" class="fil1" d="M50 291l2 -20 8 0c-3,-3 -5,-6 -6,-9 -2,-3 -2,-7 -2,-11 1,-4 2,-8 3,-10 2,-3 5,-5 8,-6 -3,-4 -6,-7 -7,-10 -1,-3 -1,-6 -1,-10 1,-6 3,-11 7,-14 4,-3 9,-4 17,-3l35 2 -2 22 -32 -3c-2,0 -4,0 -5,1 -2,2 -4,3 -4,5 0,3 1,5 3,7 1,1 4,2 8,3l29 2 -2 22 -31 -3c-2,0 -4,0 -5,0 -1,0 -2,1 -3,2 -1,1 -2,3 -2,4 0,3 1,5 2,6 2,2 5,3 9,3l29 3 -2 21 -56 -4z"/>
  <path id="4" class="fil1" d="M105 149l-14 15c-2,-3 -4,-5 -5,-8 0,-2 0,-5 0,-8 0,-2 2,-5 3,-8 2,-3 4,-6 6,-9 4,-5 8,-9 11,-12 3,-3 6,-4 10,-5 2,0 5,0 8,1 2,1 5,2 7,4l19 15c3,2 4,3 6,4 1,0 3,1 5,2l-12 15c-2,0 -3,0 -4,0 0,-1 -1,-1 -3,-2 1,4 0,7 -1,10 -1,4 -3,8 -6,12 -4,5 -8,8 -13,9 -5,1 -9,0 -12,-3 -4,-3 -6,-6 -6,-9 -1,-4 0,-9 4,-15 3,-7 6,-12 7,-14 1,-3 2,-5 2,-8 -2,-2 -3,-2 -5,-2 -1,0 -3,1 -5,3 -2,3 -3,6 -3,8 -1,1 0,3 1,5zm21 -7c-1,3 -2,6 -4,9 -1,4 -2,7 -2,8 0,2 1,3 2,4 1,1 3,2 4,1 2,0 3,-1 5,-3 1,-2 2,-4 3,-6 0,-2 0,-4 -1,-6 -1,-2 -2,-4 -4,-5l-3 -2z"/>
  <path id="5" class="fil1" d="M189 65l18 -7 19 49 1 3c2,3 2,6 2,10 0,4 -1,7 -3,9 -2,3 -4,6 -7,8 -4,2 -8,4 -12,6 -11,4 -18,5 -24,3 -5,-1 -8,-5 -10,-10 -1,-1 -1,-2 -1,-3l20 -5c1,2 2,2 4,3 2,0 4,0 6,-1 3,-1 5,-3 6,-5 0,-2 0,-5 -1,-9l-4 -7c-1,3 -2,5 -3,7 -3,3 -6,5 -10,6 -7,3 -13,2 -20,-2 -5,-4 -9,-9 -11,-16 -3,-8 -4,-15 -2,-21 3,-6 7,-10 14,-12 4,-2 7,-2 10,-2 4,0 7,2 10,4l-2 -8zm-10 33c2,4 4,6 6,7 2,2 5,2 7,1 3,-1 5,-3 6,-6 1,-2 0,-5 -1,-9 -2,-4 -4,-7 -6,-8 -3,-1 -5,-1 -8,0 -2,1 -4,2 -5,5 -1,2 0,6 1,10z"/>
  <path id="6" class="fil1" d="M264 72l-21 -4c1,-4 3,-6 4,-8 2,-2 4,-4 7,-5 2,-1 5,-2 8,-2 4,0 8,0 12,0 6,1 11,1 15,3 4,1 7,2 9,5 2,2 3,4 4,7 1,3 1,6 1,8l-2 25c0,3 0,5 0,6 0,2 1,4 2,6l-20 -2c-1,-1 -2,-2 -2,-3 0,-1 0,-2 0,-4 -3,3 -6,5 -9,6 -4,1 -8,1 -13,1 -7,-1 -12,-3 -15,-6 -3,-4 -5,-7 -4,-12 0,-4 1,-8 4,-10 3,-3 8,-4 14,-5 9,-1 14,-2 16,-2 3,-1 5,-1 8,-2 0,-3 0,-5 -1,-6 -1,-1 -3,-2 -6,-2 -3,0 -6,0 -8,1 -1,1 -2,2 -3,5zm17 13c-3,0 -6,1 -9,2 -5,0 -8,1 -9,2 -1,1 -2,3 -2,4 0,2 0,3 2,4 1,2 2,2 5,3 2,0 4,-1 6,-2 3,-1 4,-2 5,-4 1,-1 2,-3 2,-6l0 -3z"/>
  <polygon id="7" class="fil1" points="341,70 385,98 378,108 339,117 364,133 356,146 309,116 316,104 354,95 333,82 "/>
  <path id="8" class="fil1" d="M421 104l14 16 -11 10 -14 -16 11 -10zm-17 14l14 16 -42 37 -14 -16 42 -37z"/>
  <path id="9" class="fil1" d="M439 164l6 19 -9 3c5,2 8,4 11,6 2,2 4,6 6,10 2,6 1,10 -1,15 -2,4 -7,7 -14,10l-34 11 -7 -20 30 -10c3,-1 5,-3 6,-4 1,-2 1,-4 1,-6 -1,-3 -3,-5 -5,-5 -3,-1 -6,-1 -11,1l-26 8 -7 -20 54 -18z"/>
  <path id="10" class="fil1" d="M417 317l7 -42c-3,0 -6,0 -8,1 -2,2 -4,4 -5,8 0,2 0,4 1,6 0,1 1,3 3,4l-6 21c-5,-5 -8,-9 -10,-14 -2,-5 -2,-12 0,-20 1,-7 3,-13 6,-17 3,-4 7,-7 12,-8 5,-2 10,-3 17,-2 8,2 15,6 19,12 4,7 6,15 4,25 -2,8 -4,14 -7,18 -3,4 -8,7 -13,8 -4,2 -11,2 -18,1l-2 -1zm14 -19c4,0 7,-1 9,-2 2,-2 4,-4 4,-7 1,-3 0,-6 -2,-8 -2,-2 -4,-3 -7,-4l-4 21z"/>
 </g>
</svg>
